<svg id="Shapes" xmlns="http://www.w3.org/2000/svg" width="10.455" height="9.148" viewBox="0 0 10.455 9.148">
  <path id="Path" d="M1.96,1.307H.653A.654.654,0,0,1,0,.653H0A.654.654,0,0,1,.653,0H1.96a.654.654,0,0,1,.653.653h0A.654.654,0,0,1,1.96,1.307Z" transform="translate(3.921 7.842)" fill="#64748b"/>
  <path id="Path-2" data-name="Path" d="M4.574,1.307H.653A.654.654,0,0,1,0,.653H0A.654.654,0,0,1,.653,0H4.574a.654.654,0,0,1,.653.653h0A.654.654,0,0,1,4.574,1.307Z" transform="translate(2.614 5.228)" fill="#64748b"/>
  <path id="Path-3" data-name="Path" d="M7.188,1.307H.653A.654.654,0,0,1,0,.653H0A.654.654,0,0,1,.653,0H7.188a.654.654,0,0,1,.653.653h0A.654.654,0,0,1,7.188,1.307Z" transform="translate(1.307 2.614)" fill="#64748b"/>
  <path id="Path-4" data-name="Path" d="M9.8,1.307H.653A.654.654,0,0,1,0,.653H0A.654.654,0,0,1,.653,0H9.8a.654.654,0,0,1,.653.653h0A.654.654,0,0,1,9.8,1.307Z" fill="#64748b"/>
</svg>
