<svg xmlns="http://www.w3.org/2000/svg" width="17" height="17" viewBox="0 0 17 17">
  <g id="_3" data-name="3" transform="translate(-8.5 -8)">
    <g id="Group_65" data-name="Group 65" transform="translate(-2716.5 -594)">
      <circle id="Ellipse_9" data-name="Ellipse 9" cx="8.5" cy="8.5" r="8.5" transform="translate(2725 602)" fill="#4694f9"/>
      <path id="Icon_awesome-question" data-name="Icon awesome-question" d="M5.1,0a3.625,3.625,0,0,0-3.22,1.7.449.449,0,0,0,.1.615l.807.612a.449.449,0,0,0,.622-.078,1.815,1.815,0,0,1,1.548-.925c.576,0,1.287.37,1.287.929,0,.422-.348.639-.917.957-.663.372-1.54.834-1.54,1.991v.183a.449.449,0,0,0,.449.449H5.591a.449.449,0,0,0,.449-.449V5.879c0-.8,2.344-.835,2.344-3.005A3.214,3.214,0,0,0,5.1,0ZM4.913,6.987a1.3,1.3,0,1,0,1.3,1.3A1.3,1.3,0,0,0,4.913,6.987Z" transform="translate(2728.2 606)" fill="#f1f5f9"/>
    </g>
  </g>
</svg>
