<svg xmlns="http://www.w3.org/2000/svg" width="17.931" height="18" viewBox="0 0 17.931 18">
  <g id="leadership" transform="translate(-0.979 0)" opacity="0.56">
    <path id="Path_53" data-name="Path 53" d="M18.618,2.17,14.361.055A.528.528,0,0,0,13.6.528V5.16c-3.692-.928-3.521-.9-3.642-.9H4.178V2.146a.527.527,0,0,0-.527-.527H1.506a.527.527,0,0,0-.527.527V6.892a.527.527,0,0,0,.527.527H5.162V17.473A.527.527,0,0,0,5.69,18H9.943a.527.527,0,0,0,.527-.527V7.628l3.129.736v9.109a.527.527,0,1,0,1.055,0V5.107L18.62,3.113a.528.528,0,0,0,0-.943Zm-12.4,8.94H7.291c0,.042,0,3.726,0,5.835H6.217Zm2.127,5.835c0-2.109,0-5.794,0-5.835H9.416v5.835Zm1.72-10.5a.527.527,0,0,0-.648.513v3.093h-3.2V6.892a.527.527,0,0,0-.527-.527H2.034V2.673h1.09V4.782a.527.527,0,0,0,.527.527H9.891l3.708.938V7.28Zm4.59-2.522V1.378L17.2,2.645Z" transform="translate(0 0)" fill="#787993"/>
    <path id="Path_54" data-name="Path 54" d="M139.475,2.292a2.248,2.248,0,1,0-2.248,2.248A2.25,2.25,0,0,0,139.475,2.292Zm-2.248,1.133a1.133,1.133,0,1,1,1.133-1.133A1.135,1.135,0,0,1,137.227,3.425Z" transform="translate(-129.373 -0.042)" fill="#787993"/>
  </g>
</svg>
