<svg xmlns="http://www.w3.org/2000/svg" width="19.427" height="13.761" viewBox="0 0 19.427 13.761">
  <g id="Group_9" data-name="Group 9" transform="translate(-27.521 -30.759)">
    <path id="_Icon_Color" data-name="🔹 Icon Color" d="M19.427,13.761H15.541v-1.72a4.112,4.112,0,0,0-1.9-3.381c2.327.258,5.789,1.373,5.789,3.381V13.76Zm-5.828,0H0v-1.72c0-.706.442-1.726,2.547-2.579A12.5,12.5,0,0,1,6.8,8.6a12.5,12.5,0,0,1,4.252.861c2.106.853,2.548,1.873,2.548,2.579V13.76ZM6.8,10.566a9.254,9.254,0,0,0-4.526,1.228h9.053A9.254,9.254,0,0,0,6.8,10.566ZM12.627,6.88a3.326,3.326,0,0,1-1.457-.344,5.418,5.418,0,0,0,0-6.192A3.326,3.326,0,0,1,12.627,0a3.44,3.44,0,0,1,0,6.88ZM6.8,6.88a3.44,3.44,0,1,1,3.4-3.44A3.424,3.424,0,0,1,6.8,6.88Zm0-4.914A1.475,1.475,0,1,0,8.256,3.44,1.467,1.467,0,0,0,6.8,1.965Z" transform="translate(27.521 30.759)" fill="#0285ff"/>
  </g>
</svg>
