<svg xmlns="http://www.w3.org/2000/svg" width="18.085" height="18" viewBox="0 0 18.085 18">
  <g id="meeting" transform="translate(0 -0.696)" opacity="0.56">
    <path id="Path_55" data-name="Path 55" d="M115.15,4.689a2,2,0,1,0-2-2A2,2,0,0,0,115.15,4.689Z" transform="translate(-106.108)" fill="#787993"/>
    <path id="Path_56" data-name="Path 56" d="M140.9,81.607a.236.236,0,0,0-.175-.073h-.49a.236.236,0,0,0-.175.073.227.227,0,0,0-.03.268l.262.395L140.17,83.3l.241.642a.074.074,0,0,0,.138,0l.241-.642-.123-1.034.262-.395A.227.227,0,0,0,140.9,81.607Z" transform="translate(-131.438 -75.854)" fill="#787993"/>
    <path id="Path_57" data-name="Path 57" d="M89.319,86.349h6.148a.285.285,0,0,0,.284-.284V83.5a1.744,1.744,0,0,0-1.2-1.649l-.561-.172a.2.2,0,0,0-.249.124l-1.344,3.688-1.344-3.688a.2.2,0,0,0-.19-.133.2.2,0,0,0-.059.009l-.557.171a1.745,1.745,0,0,0-1.208,1.65v2.561A.285.285,0,0,0,89.319,86.349Z" transform="translate(-83.351 -75.907)" fill="#787993"/>
    <path id="Path_58" data-name="Path 58" d="M2,22.755a2,2,0,1,0-2-2A2,2,0,0,0,2,22.755Z" transform="translate(0 -17.047)" fill="#787993"/>
    <path id="Path_59" data-name="Path 59" d="M8.539,103.949H6.949v-3.14a1.808,1.808,0,1,0-3.616,0v4.266a1.736,1.736,0,0,0,1.736,1.736H7.132v2.843a.491.491,0,0,0,.491.491h1.9a.491.491,0,0,0,.491-.491v-4.225A1.479,1.479,0,0,0,8.539,103.949Z" transform="translate(-3.145 -91.447)" fill="#787993"/>
    <path id="Path_60" data-name="Path 60" d="M228.305,22.755a2,2,0,1,0-2-2A2,2,0,0,0,228.305,22.755Z" transform="translate(-212.217 -17.047)" fill="#787993"/>
    <path id="Path_61" data-name="Path 61" d="M180.183,99a1.808,1.808,0,0,0-1.808,1.808v3.14h-1.59a1.479,1.479,0,0,0-1.479,1.479v4.225a.491.491,0,0,0,.491.491h1.9a.491.491,0,0,0,.491-.491V106.81h2.063a1.736,1.736,0,0,0,1.736-1.736v-4.266A1.808,1.808,0,0,0,180.183,99Z" transform="translate(-164.094 -91.447)" fill="#787993"/>
  </g>
</svg>
