<svg xmlns="http://www.w3.org/2000/svg" width="19.932" height="19.932" viewBox="0 0 19.932 19.932">
  <g id="Group_49" data-name="Group 49" transform="translate(-1797.5 5.5)" opacity="0.56">
    <circle id="Ellipse_8" data-name="Ellipse 8" cx="2.445" cy="2.445" r="2.445" transform="translate(1805.5 2.021)" fill="none" stroke="#787993" stroke-linecap="round" stroke-linejoin="round" stroke-width="2"/>
    <path id="Path_32" data-name="Path 32" d="M16,12.411a1.345,1.345,0,0,0,.269,1.483l.049.049a1.631,1.631,0,1,1-2.307,2.307L13.96,16.2a1.356,1.356,0,0,0-2.3.962V17.3a1.63,1.63,0,1,1-3.26,0v-.073A1.345,1.345,0,0,0,7.521,16a1.345,1.345,0,0,0-1.483.269l-.049.049a1.631,1.631,0,1,1-2.307-2.307l.049-.049a1.356,1.356,0,0,0-.962-2.3H2.63a1.63,1.63,0,1,1,0-3.26H2.7a1.345,1.345,0,0,0,1.231-.88,1.345,1.345,0,0,0-.269-1.483l-.049-.049A1.631,1.631,0,1,1,5.923,3.682l.049.049A1.345,1.345,0,0,0,7.455,4h.065a1.345,1.345,0,0,0,.815-1.231V2.63a1.63,1.63,0,0,1,3.26,0V2.7a1.356,1.356,0,0,0,2.3.962l.049-.049A1.631,1.631,0,1,1,16.25,5.923l-.049.049a1.345,1.345,0,0,0-.269,1.483v.065a1.345,1.345,0,0,0,1.231.815H17.3a1.63,1.63,0,1,1,0,3.26h-.073A1.345,1.345,0,0,0,16,12.411Z" transform="translate(1797.5 -5.5)" fill="none" stroke="#787993" stroke-linecap="round" stroke-linejoin="round" stroke-width="2"/>
  </g>
</svg>
