<svg xmlns="http://www.w3.org/2000/svg" width="21.046" height="17.807" viewBox="0 0 21.046 17.807">
  <g id="Group_7" data-name="Group 7" transform="translate(-26.478 -29.14)">
    <path id="_Icon_Color" data-name="🔹 Icon Color" d="M18.941,17.807H2.1a2.036,2.036,0,0,1-1.49-.649A2.279,2.279,0,0,1,0,15.582L.01,2.226A2.288,2.288,0,0,1,.619.65,2.021,2.021,0,0,1,2.1,0H18.941a2.17,2.17,0,0,1,2.1,2.226V15.582a2.279,2.279,0,0,1-.614,1.576A2.036,2.036,0,0,1,18.941,17.807ZM.809,3.237V6.476H20.236V3.237Z" transform="translate(26.478 29.14)" fill="#78d0dc"/>
  </g>
</svg>
